<svg width="1440" height="560" viewBox="0 0 1440 560" fill="none" xmlns="http://www.w3.org/2000/svg">
<g clip-path="url(#clip0_1_2)">
<mask id="mask0_1_2" style="mask-type:luminance" maskUnits="userSpaceOnUse" x="0" y="0" width="1440" height="560">
<path d="M1440 0H0V560H1440V0Z" fill="white"/>
</mask>
<g mask="url(#mask0_1_2)">
<path d="M1440 0H6.10352e-05V560H1440V0Z" fill="#E1EFEC"/>
<path d="M255.004 452.597C319.34 393.684 411.398 368.461 456.133 293.572C502.21 216.439 494.311 123.26 505.025 34.0531C518.858 -81.1124 584.787 -204.864 528.158 -306.093C471.662 -407.085 341.555 -449.695 226.667 -463.544C121.827 -476.182 28.3089 -411.988 -71.8117 -378.416C-162.24 -348.093 -258.095 -335.315 -332.753 -275.962C-414.405 -211.048 -493.156 -130.255 -512.819 -27.8146C-532.477 74.6041 -470.181 170.287 -437.41 269.293C-402.264 375.474 -393.934 495.972 -313.661 573.857C-228.751 656.241 -106.393 727.4 9.31362 702.727C125.978 677.85 167.029 533.156 255.004 452.597Z" fill="#8DD7CA"/>
<path d="M937.821 844.85C1002 922.058 1059.64 1032.9 1159.84 1039.24C1262.26 1045.72 1323.14 924.843 1412.8 874.907C1484.87 834.767 1584.92 841.667 1633.85 775.246C1682.73 708.887 1669.34 616.997 1663.33 534.798C1658 461.945 1637.89 392.44 1601.2 329.276C1565.24 267.375 1514.65 217.87 1455.66 177.314C1391.24 133.027 1321.93 100.59 1245.39 84.6712C1146.92 64.1899 1025.72 5.91724 950.026 72.147C872.519 139.96 943.105 273.582 915.937 372.918C892.375 459.071 798.821 520.664 802.958 609.885C807.227 701.958 878.903 773.966 937.821 844.85Z" fill="#3E635C"/>
</g>
</g>
<defs>
<clipPath id="clip0_1_2">
<rect width="1440" height="560" fill="white"/>
</clipPath>
</defs>
</svg>
