<svg width="650" height="560" viewBox="0 0 650 560" fill="none" xmlns="http://www.w3.org/2000/svg">
<g clip-path="url(#clip0_3_2)">
<mask id="mask0_3_2" style="mask-type:luminance" maskUnits="userSpaceOnUse" x="0" y="0" width="650" height="560">
<path d="M650 0H0V560H650V0Z" fill="white"/>
</mask>
<g mask="url(#mask0_3_2)">
<path d="M650 0H0V560H650V0Z" fill="#E1EFEC"/>
<path d="M44.5 -117.627C-67.0786 -122.805 -186.242 -118.166 -280.688 -95.9097C-375.028 -73.679 -426.612 -34.8863 -468.075 3.15768C-507.948 39.7425 -519.53 78.3676 -513.461 117.669C-506.918 160.032 -507.394 206.528 -431.689 238.77C-355.876 271.059 -232.241 287.061 -115.615 287.11C-9.84412 287.154 70.7936 255.916 165.858 239.022C242.664 225.372 333.287 220.805 389.476 197.347C445.748 173.855 448.147 140.734 472.811 110.877C502.379 75.082 579.141 40.247 548.738 4.54483C518.199 -31.3175 406.296 -47.2188 320.477 -68.0115C233.292 -89.1353 148.365 -112.807 44.5 -117.627Z" fill="#8DD7CA"/>
<path d="M692.072 698.321C795.541 695.005 902.391 695.135 990.705 675.216C1079.78 655.126 1131.13 620.76 1182.98 587.598C1239.51 551.448 1296.28 515.24 1305.68 473.777C1316.68 425.273 1320.58 371.728 1240.79 332.694C1159.72 293.038 1016.69 278.236 884.163 267.575C757.995 257.425 621.392 253.238 504.74 273.481C394.309 292.644 355.845 340.835 273.017 373.627C186.73 407.788 48.2205 426.026 8.123 470.092C-33.8036 516.17 -9.13654 569.419 56.4004 611.684C119.834 652.593 236.863 679.041 357.652 695.503C464.246 710.031 578.702 701.954 692.072 698.321Z" fill="#3E635C"/>
</g>
<mask id="mask1_3_2" style="mask-type:luminance" maskUnits="userSpaceOnUse" x="0" y="0" width="650" height="560">
<path d="M650 0H0V560H650V0Z" fill="white"/>
</mask>
<g mask="url(#mask1_3_2)">
<path d="M650 0H0V560H650V0Z" fill="#E1EFEC"/>
<path d="M-38.3723 -180.497C-149.981 -187.233 -269.177 -181.198 -363.649 -152.247C-458.014 -123.328 -509.612 -72.8653 -551.087 -23.3762C-590.97 24.2147 -602.556 74.4598 -596.484 125.584C-589.94 180.692 -590.416 241.175 -514.691 283.118C-438.857 325.12 -315.189 345.936 -198.531 346C-92.7312 346.058 -12.0716 305.422 83.019 283.445C159.845 265.69 250.493 259.748 306.697 229.233C362.984 198.674 365.384 155.589 390.055 116.75C419.631 70.1858 496.414 24.871 466.003 -21.5717C435.456 -68.2229 323.522 -88.908 237.679 -115.956C150.471 -143.435 65.5208 -174.228 -38.3723 -180.497Z" fill="#8DD7CA"/>
<path d="M624.695 701.461C696.897 698.143 771.457 698.273 833.082 678.342C895.236 658.241 931.07 623.854 967.253 590.672C1006.7 554.501 1046.31 518.271 1052.87 476.784C1060.55 428.251 1063.27 374.673 1007.59 335.617C951.023 295.937 851.214 281.126 758.737 270.458C670.697 260.302 575.374 256.113 493.974 276.368C416.915 295.542 390.075 343.762 332.277 376.574C272.066 410.755 175.413 429.004 147.433 473.096C118.176 519.201 135.389 572.483 181.121 614.773C225.385 655.706 307.049 682.17 391.336 698.642C465.717 713.179 545.585 705.096 624.695 701.461Z" fill="#3E635C"/>
</g>
</g>
<defs>
<clipPath id="clip0_3_2">
<rect width="650" height="560" fill="white"/>
</clipPath>
</defs>
</svg>
